<svg id="Layer_1" enable-background="new 0 0 512 512" viewBox="0 0 512 512" xmlns="http://www.w3.org/2000/svg"><g><g><path d="m489.715 167.004v284.952c0 26.534-21.51 48.044-48.044 48.044h-296.28c-26.534 0-48.044-21.51-48.044-48.044v-391.912c0-26.534 21.51-48.044 48.044-48.044h198.441z" fill="#ed676a"/><path d="m489.714 167.004h-113.853c-17.689 0-32.029-14.34-32.029-32.029v-122.974z" fill="#e5252a"/><path d="m402.888 427.607h-371.403c-5.081 0-9.2-4.119-9.2-9.2v-168.324c0-5.081 4.119-9.2 9.2-9.2h371.403c5.081 0 9.2 4.119 9.2 9.2v168.324c0 5.081-4.119 9.2-9.2 9.2z" fill="#e5252a"/><g fill="#fff"><path d="m121.248 382.919c-1.814 0-3.441-.375-4.911-1.126s-2.221-1.939-2.221-3.566v-89.05c0-1.282.5-2.346 1.533-3.222 1.032-.907 2.377-1.376 3.972-1.376h26.243c5.474 0 10.447 1.001 14.92 2.909 4.504 1.939 8.039 5.067 10.635 9.415s3.91 10.134 3.91 17.297v1.063c0 7.163-1.345 12.949-4.035 17.297s-6.318 7.507-10.916 9.477c-4.567 1.971-9.665 2.971-15.327 2.971h-16.671v33.218c0 1.626-.751 2.815-2.221 3.566-1.502.752-3.129 1.127-4.911 1.127zm7.131-49.232h16.671c5.036 0 8.946-1.439 11.761-4.285 2.846-2.878 4.254-7.288 4.254-13.168v-1.626c0-5.943-1.408-10.322-4.254-13.137-2.815-2.815-6.725-4.223-11.761-4.223h-16.671z"/><path d="m193.876 382.919c-1.877 0-3.409-.438-4.567-1.314-1.189-.907-1.752-2.002-1.752-3.253v-89.175c0-1.282.563-2.346 1.752-3.222 1.157-.907 2.69-1.376 4.567-1.376h23.803c5.661 0 10.791 1.001 15.42 2.971 4.598 1.971 8.226 5.161 10.885 9.54 2.659 4.41 3.972 10.259 3.972 17.516v38.348c0 7.257-1.314 13.074-3.972 17.453-2.659 4.41-6.287 7.601-10.885 9.571-4.629 1.971-9.759 2.94-15.42 2.94h-23.803zm7.945-12.636h15.858c5.036 0 8.946-1.408 11.792-4.254 2.815-2.815 4.223-7.194 4.223-13.074v-38.348c0-5.943-1.408-10.322-4.223-13.137-2.846-2.815-6.756-4.223-11.792-4.223h-15.858z"/><path d="m271.791 382.919c-1.814 0-3.441-.375-4.911-1.126s-2.221-1.939-2.221-3.566v-88.925c0-1.533.657-2.69 2.002-3.472 1.345-.813 2.784-1.251 4.316-1.251h47.231c1.595 0 2.753.688 3.472 2.033s1.095 2.721 1.095 4.16c0 1.72-.375 3.222-1.157 4.504-.751 1.314-1.908 1.971-3.409 1.971h-39.286v30.809h20.832c1.533 0 2.69.563 3.441 1.752.751 1.157 1.157 2.502 1.157 4.004 0 1.282-.375 2.502-1.095 3.722-.719 1.22-1.877 1.814-3.503 1.814h-20.832v38.879c0 1.626-.751 2.815-2.221 3.566-1.501.751-3.128 1.126-4.911 1.126z"/></g></g></g></svg>